<?xml version="1.0" standalone="no"?><svg xmlns="http://www.w3.org/2000/svg" viewBox="0 0 1440 320"><path fill="#0099ff" fill-opacity="1" d="M0,320L26.7,320C53.3,320,107,320,160,298.7C213.3,277,267,235,320,197.3C373.3,160,427,128,480,101.3C533.3,75,587,53,640,69.3C693.3,85,747,139,800,181.3C853.3,224,907,256,960,229.3C1013.3,203,1067,117,1120,85.3C1173.3,53,1227,75,1280,69.3C1333.3,64,1387,32,1413,16L1440,0L1440,0L1413.3,0C1386.7,0,1333,0,1280,0C1226.7,0,1173,0,1120,0C1066.7,0,1013,0,960,0C906.7,0,853,0,800,0C746.7,0,693,0,640,0C586.7,0,533,0,480,0C426.7,0,373,0,320,0C266.7,0,213,0,160,0C106.7,0,53,0,27,0L0,0Z"></path></svg>